<?xml version="1.0" encoding="UTF-8"?>
<svg version="1.1" xmlns="http://www.w3.org/2000/svg" width="512" height="512">
<path d="M0 0 C0.67272949 0.24137695 1.34545898 0.48275391 2.03857422 0.73144531 C21.28405814 7.90619782 37.44941424 21.01384448 49 38 C49.46148437 37.32195313 49.92296875 36.64390625 50.3984375 35.9453125 C64.95446526 15.17564443 85.74211594 1.21493526 110.80151367 -3.53051758 C126.73378588 -5.86909932 144.74223636 -5.49201146 160 0 C160.67272949 0.24137695 161.34545898 0.48275391 162.03857422 0.73144531 C186.70093311 9.92561897 205.92678953 28.29147528 217.13183594 52.02050781 C227.89375946 76.55866189 226.76684152 103.55079169 220 129 C220.7747467 128.75312439 221.54949341 128.50624878 222.34771729 128.25189209 C230.54055004 125.68088108 238.77551202 123.45335141 247.109375 121.390625 C248.43682144 121.05927747 249.76419182 120.72762508 251.0914917 120.39569092 C255.30975592 119.34211813 259.52977712 118.29569463 263.75 117.25 C265.19947242 116.89050067 266.64893528 116.53096277 268.09838867 116.17138672 C279.58209551 113.3230126 279.58209551 113.3230126 285.32275391 111.90319824 C292.07628194 110.23160735 298.82504303 108.54454209 305.56011963 106.79974365 C308.55539507 106.02398398 311.55378216 105.26079994 314.55285645 104.49987793 C316.40807367 104.02359967 318.25840177 103.52839617 320.10839844 103.03222656 C334.08897537 99.51778336 348.92449621 99.28300066 361.78125 106.578125 C373.88428066 114.67111538 381.64567411 124.73072314 385 139 C385.38405283 142.3856643 385.41077672 145.72536017 385.38768005 149.13027954 C385.39575836 150.58399053 385.39575836 150.58399053 385.40399987 152.06706941 C385.41821301 155.28784654 385.411192 158.5082088 385.40405273 161.72900391 C385.40975993 164.04931974 385.41672554 166.36963278 385.42485046 168.68994141 C385.44276262 174.97538769 385.44161654 181.2606942 385.43590808 187.54615831 C385.43241969 193.47045089 385.4403875 199.39472233 385.44726873 205.3190103 C385.46097597 217.77505223 385.45556972 230.23103125 385.44408352 242.68707173 C385.43416396 254.05030973 385.44707279 265.41338461 385.47101771 276.77659746 C385.49548074 288.47489657 385.50499829 300.17311995 385.49836498 311.87144411 C385.49500472 318.42679462 385.49734802 324.98201056 385.51461601 331.53734207 C385.53016196 337.70822423 385.52604488 343.87879708 385.50731087 350.04966736 C385.50364547 352.30375996 385.506673 354.55787586 385.51719666 356.81194687 C385.62893952 382.74348329 379.67968113 403.26123003 361.62890625 422.53125 C344.90502528 438.56860055 323.28727911 444.74341707 300.61328125 444.3046875 C282.33601619 443.55488276 265.47629398 436.36509079 252 424 C251.24460937 423.33613281 250.48921875 422.67226563 249.7109375 421.98828125 C235.27073366 408.56534263 226.61691041 389.22480332 225.78515625 369.59375 C225.12160396 345.43507968 232.5258918 324.8917028 249.1875 307.25 C264.54207643 292.57879832 283.86167412 284.58894213 305.125 284.625 C306.12547363 284.62661133 307.12594727 284.62822266 308.15673828 284.62988281 C325.78789273 284.91813057 338.82099151 291.14557838 354 300 C354.33 269.64 354.66 239.28 355 208 C344.93886719 210.55492187 334.87773437 213.10984375 324.51171875 215.7421875 C317.95905631 217.40425314 311.40634458 219.06610652 304.85302734 220.72558594 C304.02118069 220.93623294 303.18933404 221.14687995 302.33227992 221.3639102 C274.54199717 228.39987322 246.73765893 235.37989993 218.92834663 242.34022903 C209.52459091 244.69390738 200.12169457 247.05096091 190.71984082 249.41222584 C183.9413047 251.11437309 177.16188113 252.81295375 170.38176936 254.50881374 C166.3881178 255.50781011 162.39485999 256.50831679 158.40256691 257.51272964 C154.71160001 258.44125523 151.0195588 259.36537499 147.3266201 260.286026 C145.97811609 260.62302787 144.63001385 260.96164215 143.28234863 261.30198288 C141.44724278 261.76516535 139.61053824 262.2220002 137.77375793 262.67849731 C136.74876096 262.93534365 135.72376398 263.19218998 134.66770649 263.45681953 C132 264 132 264 128 264 C128.00368717 264.89746193 128.00737434 265.79492386 128.01117325 266.7195816 C128.09973121 288.6146202 128.16580997 310.50962768 128.20724869 332.40480804 C128.22782373 342.99340775 128.25584703 353.58188748 128.30175781 364.17041016 C128.34178107 373.40552465 128.36746952 382.6405522 128.37635398 391.87575102 C128.38154263 396.76015717 128.39363096 401.64431472 128.42292023 406.52864075 C128.45033481 411.13825908 128.45839313 415.74752949 128.45243073 420.3572216 C128.45351944 422.03725522 128.46131674 423.71730207 128.4768219 425.39726448 C128.59872391 439.30264287 126.99068221 452.82653105 120.3125 465.3125 C119.9707373 465.97000244 119.62897461 466.62750488 119.27685547 467.30493164 C109.1631077 486.07287636 91.33682729 499.90603782 71 506 C47.88697886 511.92826459 25.33249564 507.86555657 5 496 C2.15874701 494.16411345 -0.4292779 492.19303307 -3 490 C-3.56460938 489.5771875 -4.12921875 489.154375 -4.7109375 488.71875 C-18.82601093 477.73326298 -27.99523812 458.72790215 -30.72314453 441.29638672 C-33.37019786 419.34031655 -28.51637578 397.88531618 -15.41796875 380.00390625 C-1.62895957 362.87345704 17.06946393 351.89854965 39 349 C59.68605519 347.51874449 79.17248991 351.37936743 96 364 C96.495 324.895 96.495 324.895 97 285 C90.07 289.29 83.14 293.58 76 298 C52.15612745 310.00194927 52.15612745 310.00194927 39.171875 306.1640625 C15.92025867 297.92668084 -4.52980331 282.24071909 -23.203125 266.50439453 C-24.84892396 265.12648513 -26.51325305 263.77665373 -28.1875 262.43359375 C-36.73422997 255.46983584 -44.50621304 247.70624492 -52.3125 239.9375 C-52.87257751 239.38268951 -53.43265503 238.82787903 -54.00970459 238.2562561 C-61.14667211 231.17120284 -67.75821345 223.90211613 -74 216 C-75.00008411 214.7910987 -76.00350077 213.58493857 -77.01171875 212.3828125 C-100.61569766 183.82912456 -119.14153326 150.66346145 -126 114 C-126.26611084 112.5924646 -126.26611084 112.5924646 -126.53759766 111.15649414 C-128.88448611 95.13594464 -128.52364031 76.26269034 -123 61 C-122.649375 59.8965625 -122.29875 58.793125 -121.9375 57.65625 C-114.38563275 35.62997051 -97.80651994 18.57561664 -78 7 C-77.23558594 6.54882812 -76.47117188 6.09765625 -75.68359375 5.6328125 C-53.74651817 -6.31936743 -23.4109311 -8.42673309 0 0 Z " fill="#1D3145" transform="translate(127,4)"/>
<path d="M0 0 C0.67272949 0.24137695 1.34545898 0.48275391 2.03857422 0.73144531 C21.28405814 7.90619782 37.44941424 21.01384448 49 38 C49.46148437 37.32195313 49.92296875 36.64390625 50.3984375 35.9453125 C64.95446526 15.17564443 85.74211594 1.21493526 110.80151367 -3.53051758 C126.73378588 -5.86909932 144.74223636 -5.49201146 160 0 C160.67272949 0.24137695 161.34545898 0.48275391 162.03857422 0.73144531 C186.70093311 9.92561897 205.92678953 28.29147528 217.13183594 52.02050781 C225.42183816 70.92245889 226.47753211 90.8075219 223.6875 111 C223.56995361 111.85980469 223.45240723 112.71960938 223.33129883 113.60546875 C222.95218764 116.10542243 222.56677881 118.53429874 222 121 C221.95649414 122.05009247 221.95649414 122.05009247 221.91210938 123.12139893 C221.48537791 126.1334509 220.93183621 127.61696547 219 130 C213.16466698 132.66006414 207.02743355 133.90756128 200.7890625 135.296875 C198.94031454 135.73920483 197.09245166 136.18524884 195.24545288 136.63482666 C190.37536231 137.81094054 185.49584719 138.94151096 180.61254883 140.06134033 C172.8308914 141.85508963 165.06666798 143.72341927 157.29987717 145.58023834 C154.60344603 146.21912022 151.90383978 146.84249377 149.20303345 147.46258545 C132.03737038 151.44875708 116.79662 156.03012289 106 171 C100.81956283 179.73941126 98.66764989 187.38015836 98.91918945 197.44848633 C98.94828824 199.35675156 98.97710953 201.26502103 99.00569153 203.17329407 C99.02421488 204.17648493 99.04273823 205.17967579 99.06182289 206.21326637 C99.15002789 211.55915476 99.17027465 216.90548064 99.20117188 222.25195312 C99.2428436 229.04070548 99.30498947 235.82706694 99.44897461 242.61450195 C99.56387269 248.11529834 99.60498921 253.6123866 99.59746361 259.11432457 C99.6079319 261.20247642 99.64506078 263.29068008 99.71001625 265.37784767 C100.18404817 281.24229352 100.18404817 281.24229352 96.54149246 285.8415966 C93.02630417 289.00177261 89.11562788 291.18293185 84.83823967 293.14753723 C82.2352799 294.35463026 79.79691463 295.81941117 77.328125 297.27734375 C75.63995106 298.17266514 73.94734932 299.05969766 72.25 299.9375 C70.98736328 300.6190918 70.98736328 300.6190918 69.69921875 301.31445312 C59.53061716 306.63162266 50.3531539 309.490885 39.18359375 306.16015625 C15.92526805 297.98044471 -4.54505834 282.22786342 -23.203125 266.50439453 C-24.84892396 265.12648513 -26.51325305 263.77665373 -28.1875 262.43359375 C-36.73422997 255.46983584 -44.50621304 247.70624492 -52.3125 239.9375 C-52.87257751 239.38268951 -53.43265503 238.82787903 -54.00970459 238.2562561 C-61.14667211 231.17120284 -67.75821345 223.90211613 -74 216 C-75.00008411 214.7910987 -76.00350077 213.58493857 -77.01171875 212.3828125 C-100.61569766 183.82912456 -119.14153326 150.66346145 -126 114 C-126.26611084 112.5924646 -126.26611084 112.5924646 -126.53759766 111.15649414 C-128.88448611 95.13594464 -128.52364031 76.26269034 -123 61 C-122.649375 59.8965625 -122.29875 58.793125 -121.9375 57.65625 C-114.38563275 35.62997051 -97.80651994 18.57561664 -78 7 C-77.23558594 6.54882812 -76.47117188 6.09765625 -75.68359375 5.6328125 C-53.74651817 -6.31936743 -23.4109311 -8.42673309 0 0 Z " fill="#FF8393" transform="translate(127,4)"/>
<path d="M0 0 C0.67272949 0.24137695 1.34545898 0.48275391 2.03857422 0.73144531 C26.70093311 9.92561897 45.92678953 28.29147528 57.13183594 52.02050781 C65.42183816 70.92245889 66.47753211 90.8075219 63.6875 111 C63.56995361 111.85980469 63.45240723 112.71960938 63.33129883 113.60546875 C62.95218764 116.10542243 62.56677881 118.53429874 62 121 C61.97099609 121.70006165 61.94199219 122.40012329 61.91210938 123.12139893 C61.48537791 126.1334509 60.93183621 127.61696547 59 130 C53.16466698 132.66006414 47.02743355 133.90756128 40.7890625 135.296875 C38.94031454 135.73920483 37.09245166 136.18524884 35.24545288 136.63482666 C30.37536231 137.81094054 25.49584719 138.94151096 20.61254883 140.06134033 C12.8308914 141.85508963 5.06666798 143.72341927 -2.70012283 145.58023834 C-5.39655397 146.21912022 -8.09616022 146.84249377 -10.79696655 147.46258545 C-27.96262962 151.44875708 -43.20338 156.03012289 -54 171 C-59.18043717 179.73941126 -61.33235011 187.38015836 -61.08081055 197.44848633 C-61.05171176 199.35675156 -61.02289047 201.26502103 -60.99430847 203.17329407 C-60.97578512 204.17648493 -60.95726177 205.17967579 -60.93817711 206.21326637 C-60.84997211 211.55915476 -60.82972535 216.90548064 -60.79882812 222.25195312 C-60.7571564 229.04070548 -60.69501053 235.82706694 -60.55102539 242.61450195 C-60.43612731 248.11529834 -60.39501079 253.6123866 -60.40253639 259.11432457 C-60.3920681 261.20247642 -60.35493922 263.29068008 -60.28998375 265.37784767 C-59.815921 281.24332528 -59.815921 281.24332528 -63.45907402 285.8415966 C-66.97536422 289.00158152 -70.88680041 291.18211972 -75.16453552 293.14752579 C-77.75740792 294.35177511 -80.18180733 295.81647265 -82.63671875 297.27734375 C-84.31388067 298.17616852 -85.99742929 299.06318938 -87.6875 299.9375 C-88.57598633 300.4005957 -89.46447266 300.86369141 -90.37988281 301.34082031 C-96.64167397 304.516231 -102.90795647 307.38572851 -110 308 C-111.56871876 306.43128124 -111.13475046 304.88768211 -111.14539433 302.70660591 C-111.15231896 301.77436514 -111.1592436 300.84212437 -111.16637808 299.88163388 C-111.1689222 298.84538494 -111.17146631 297.80913601 -111.17408752 296.7414856 C-111.18058648 295.64991681 -111.18708543 294.55834802 -111.19378132 293.4337014 C-111.21429768 289.74503363 -111.22743199 286.05637702 -111.24047852 282.36767578 C-111.25328246 279.73516178 -111.26641775 277.10264937 -111.27986145 274.47013855 C-111.32238836 265.79522718 -111.35194211 257.12028446 -111.37890625 248.4453125 C-111.38121383 247.70766118 -111.38352141 246.97000986 -111.38589892 246.21000546 C-111.43134928 231.56271353 -111.46987652 216.91540669 -111.49662876 202.26806831 C-111.50261796 199.04524847 -111.50870357 195.82242884 -111.51489258 192.59960938 C-111.51642556 191.79858492 -111.51795854 190.99756046 -111.51953798 190.17226253 C-111.54522304 177.21097396 -111.60207366 164.25001153 -111.67135788 151.2888905 C-111.74190909 137.98065492 -111.78207567 124.67258762 -111.79337829 111.36416805 C-111.80052978 103.89258416 -111.82120742 96.42156589 -111.87640572 88.95016861 C-111.92341162 82.58306065 -111.94308659 76.21660335 -111.92752422 69.84932812 C-111.92043683 66.60286911 -111.93048172 63.35808783 -111.96710205 60.1117878 C-112.21914779 36.53074711 -112.21914779 36.53074711 -104.96279812 28.78240776 C-104.31507474 28.1942132 -103.66735136 27.60601864 -103 27 C-102.17113281 26.02804688 -101.34226563 25.05609375 -100.48828125 24.0546875 C-74.83802397 -1.64162051 -34.7941622 -12.52411179 0 0 Z " fill="#FE5E8F" transform="translate(287,4)"/>
<path d="M0 0 C3.60119503 2.77370605 6.8329016 5.74492665 10 9 C10.886875 9.845625 11.77375 10.69125 12.6875 11.5625 C13.450625 12.366875 14.21375 13.17125 15 14 C15.51820313 14.52335937 16.03640625 15.04671875 16.5703125 15.5859375 C31.76188095 31.73123671 36.7437012 53.06381786 36.3046875 74.67578125 C35.40426124 95.53069514 25.16709901 113.49453201 10.25 127.6875 C-9.3228687 144.59821654 -30.92400829 148.5949099 -56 147 C-69.87064562 145.39489418 -84.41754054 138.02769053 -95 129 C-95.56460938 128.5771875 -96.12921875 128.154375 -96.7109375 127.71875 C-110.82601093 116.73326298 -119.99523812 97.72790215 -122.72314453 80.29638672 C-125.37019786 58.34031655 -120.51637578 36.88531618 -107.41796875 19.00390625 C-81.73931777 -12.89735806 -34.99225751 -22.72967615 0 0 Z " fill="#314F6D" transform="translate(219,365)"/>
<path d="M0 0 C0 36.96 0 73.92 0 112 C-10.12551907 115.37517302 -10.12551907 115.37517302 -13.85176086 116.30986023 C-14.69976761 116.52433807 -15.54777435 116.73881592 -16.42147827 116.95979309 C-17.31791046 117.18277573 -18.21434265 117.40575836 -19.13793945 117.63549805 C-20.10818558 117.87977539 -21.0784317 118.12405273 -22.07807922 118.37573242 C-25.25559127 119.17465162 -28.43436292 119.9684152 -31.61328125 120.76171875 C-33.83290338 121.31776533 -36.05248177 121.8739865 -38.27201843 122.43037415 C-42.90870346 123.59177263 -47.54604293 124.75051277 -52.18383789 125.9074707 C-58.13153979 127.39151321 -64.07733474 128.88304468 -70.02264118 130.37665081 C-74.59850679 131.52519676 -79.17545611 132.66937428 -83.75273705 133.8122654 C-85.94638447 134.36063887 -88.13966642 134.91047645 -90.33257484 135.46179771 C-93.3902896 136.22993564 -96.44943628 136.9920846 -99.5090332 137.75268555 C-100.41558655 137.98174088 -101.32213989 138.2107962 -102.25616455 138.4467926 C-103.09007217 138.65281097 -103.9239798 138.85882935 -104.78315735 139.0710907 C-105.5052152 139.25155284 -106.22727304 139.43201498 -106.97121143 139.61794567 C-109 140 -109 140 -113 140 C-113 191.48 -113 242.96 -113 296 C-113.33 296 -113.66 296 -114 296 C-114.1959375 294.88625 -114.391875 293.7725 -114.59375 292.625 C-117.47389434 277.48963276 -122.83851906 264.73284398 -133 253 C-133.99 251.6696875 -133.99 251.6696875 -135 250.3125 C-136.77682563 248.01017837 -136.77682563 248.01017837 -138.70129395 246.99423218 C-141.01548835 245.52600206 -142.41357593 244.25192834 -144 242 C-145.03112725 236.96413809 -144.83617021 231.96202525 -144.71875 226.8515625 C-144.70870231 225.28371809 -144.70177525 223.71585107 -144.69770813 222.14797974 C-144.67761729 217.86895567 -144.61380802 213.5915769 -144.54156876 209.31315613 C-144.47168517 204.79394483 -144.43833425 200.2744603 -144.40112305 195.75488281 C-144.34175306 188.99217023 -144.2671443 182.2298655 -144.1778326 175.46748352 C-144.01012292 162.64695294 -143.95593868 149.82807564 -143.93324661 137.00655746 C-143.9184801 130.45690217 -143.88749052 123.90731013 -143.8550663 117.35772133 C-143.82913486 112.04241899 -143.80977468 106.72729498 -143.80664062 101.41192627 C-143.80250009 96.37737023 -143.7736525 91.34350589 -143.72707176 86.30916977 C-143.71395485 84.46028566 -143.70917305 82.61131903 -143.71370888 80.76239395 C-143.74612736 64.07498367 -140.94949796 51.19036104 -128.90234375 38.8515625 C-120.67890481 31.04872273 -111.37049343 27.47012895 -100.5078125 24.73046875 C-98.8398613 24.29567451 -98.8398613 24.29567451 -97.13821411 23.85209656 C-93.42851154 22.88917148 -89.71460489 21.94382498 -86 21 C-84.66423705 20.65767696 -83.32858604 20.31491683 -81.99304199 19.97174072 C-72.69713045 17.58311569 -63.3943138 15.22239373 -54.08868408 12.87194824 C-51.11687873 12.12090554 -48.14549565 11.36820026 -45.17413139 10.61541462 C-29.59571106 6.66870407 -29.59571106 6.66870407 -22.84075928 4.96939087 C-20.09069565 4.27528682 -17.3424693 3.57546429 -14.59527588 2.87020874 C-13.1405151 2.49960636 -11.68574245 2.12905057 -10.23095703 1.75854492 C-9.21256398 1.49472881 -9.21256398 1.49472881 -8.17359734 1.22558308 C-5.35828006 0.5118779 -2.91868147 0 0 0 Z " fill="#1E3146" transform="translate(368,128)"/>
<path d="M0 0 C12.12725447 8.10918823 19.81695162 18.14741379 23.21875 32.421875 C23.588407 35.56770356 23.6136012 38.65979384 23.57951355 41.82461548 C23.58207682 42.71520704 23.5846401 43.60579859 23.58728105 44.52337778 C23.59218274 47.47752667 23.5757862 50.4311529 23.55932617 53.38525391 C23.55847912 55.51478056 23.55895657 57.64430808 23.56065369 59.77383423 C23.561512 65.53346639 23.54391269 71.2929099 23.52293181 77.05249834 C23.50413771 83.07961595 23.50241242 89.10673822 23.49885559 95.13388062 C23.48954317 106.53753062 23.4649402 117.94109402 23.43480712 129.34470594 C23.40123816 142.33137747 23.38477082 155.31805321 23.36972082 168.30475736 C23.33838997 195.01051119 23.28564505 221.71618824 23.21875 248.421875 C22.88875 248.421875 22.55875 248.421875 22.21875 248.421875 C22.04859375 247.61105469 21.8784375 246.80023438 21.703125 245.96484375 C18.26393819 230.25068698 12.33320856 211.02159325 -1.52298069 201.18546867 C-4.25236584 199.22212566 -6.40197977 197.65062244 -7.41740227 194.36088943 C-7.64166156 191.88838128 -7.64798785 189.50176813 -7.57592773 187.02001953 C-7.57694992 186.09255417 -7.57797211 185.16508881 -7.57902527 184.20951843 C-7.57416456 181.15672468 -7.51979542 178.10695586 -7.46484375 175.0546875 C-7.45178216 172.93335606 -7.44182064 170.81200345 -7.43482971 168.69064331 C-7.40814865 163.11699758 -7.33942436 157.54463613 -7.26190186 151.97149658 C-7.19019454 146.28065362 -7.15830212 140.58960238 -7.12304688 134.8984375 C-7.04805468 123.73902018 -6.92863888 112.58055453 -6.78125 101.421875 C-7.98225342 101.72682388 -7.98225342 101.72682388 -9.20751953 102.03793335 C-30.63788043 107.47896394 -52.06990733 112.91339319 -73.50415039 118.33911133 C-76.19024448 119.019055 -78.87627327 119.6992545 -81.56225586 120.37963867 C-87.550678 121.89650275 -93.5397539 123.41067547 -99.53076172 124.91729736 C-101.19090423 125.33529116 -102.85073847 125.7545113 -104.51025391 126.17498779 C-106.75080022 126.74240856 -108.99239388 127.3054674 -111.234375 127.8671875 C-113.04663574 128.32375732 -113.04663574 128.32375732 -114.89550781 128.78955078 C-117.78125 129.421875 -117.78125 129.421875 -120.78125 129.421875 C-120.78125 92.131875 -120.78125 54.841875 -120.78125 16.421875 C-89.78125 8.796875 -89.78125 8.796875 -80.16015625 6.43115234 C-78.84778488 6.10818176 -77.53541351 5.78521118 -76.18327332 5.45245361 C-73.48792647 4.78931519 -70.79237633 4.12704039 -68.09663391 3.46551514 C-61.59184103 1.86735418 -55.09255764 0.25340786 -48.60620117 -1.41845703 C-47.51480835 -1.69805267 -46.42341553 -1.97764832 -45.2989502 -2.26571655 C-43.31355929 -2.77605967 -41.32966973 -3.29230194 -39.34777832 -3.81607056 C-25.87795632 -7.26995417 -12.36308975 -7.0150116 0 0 Z " fill="#0A141E" transform="translate(488.78125,110.578125)"/>
</svg>
